<svg width="260" height="51" viewBox="0 0 260 51" fill="none" xmlns="http://www.w3.org/2000/svg">
<path fill-rule="evenodd" clip-rule="evenodd" d="M26.1737 2.20106L6.92749 8.57019C4.42722 9.39761 3.58295 9.88567 2.75209 10.5883C1.92122 11.2909 1.30786 12.1406 0.90221 13.1508C0.496562 14.161 0.29863 15.1165 0.29863 17.7525V46.5109C0.29863 47.7925 0.431937 48.2572 0.682259 48.7257C0.932581 49.1942 1.29992 49.562 1.76798 49.8125C2.23604 50.0631 2.70031 50.1965 3.98062 50.1965H59.3263C60.6066 50.1965 61.0709 50.0631 61.5389 49.8125C62.007 49.562 62.3743 49.1942 62.6247 48.7257C62.875 48.2572 63.0083 47.7925 63.0083 46.5109V17.6893C63.0083 15.0711 62.8141 14.1223 62.4148 13.1179C62.0155 12.1135 61.4112 11.2673 60.5911 10.5642C59.7709 9.86096 58.9369 9.36995 56.462 8.52262L38.1783 2.26276C35.6023 1.38081 34.7143 1.15169 33.6875 0.998668C32.6608 0.84565 31.7055 0.84074 30.6772 0.983194C29.6489 1.12565 28.7586 1.34564 26.1737 2.20106ZM5.08562 45.4048H20.9616V21.1551C20.9616 20.0947 21.8212 19.2351 22.8816 19.2351H40.4253C41.4857 19.2351 42.3453 20.0947 42.3453 21.1551V45.4048H58.2213V17.6893C58.2213 15.8321 58.1539 15.3596 57.967 14.8895C57.8546 14.6067 57.708 14.4014 57.477 14.2034C57.0932 13.8743 56.6683 13.6575 54.9128 13.0565L36.6291 6.79662C34.4397 6.04701 33.7264 5.84899 32.9826 5.73815C32.4069 5.65236 31.91 5.6498 31.3334 5.72968C30.5886 5.83286 29.8733 6.02354 27.6763 6.7506L8.43009 13.1197C6.65872 13.7059 6.23001 13.92 5.84135 14.2486C5.60721 14.4466 5.45813 14.6531 5.34382 14.9378C5.15407 15.4104 5.08562 15.885 5.08562 17.7525V45.4048Z" fill="white"/>
<path fill-rule="evenodd" clip-rule="evenodd" d="M74.6544 18.0752C74.6544 17.5326 74.9025 17.2613 75.3986 17.2613H91.7032C91.9964 17.2613 92.205 17.3432 92.329 17.5071C92.4531 17.6711 92.5151 17.8773 92.5151 18.126V21.1102C92.5151 21.3136 92.4446 21.4945 92.3037 21.6527C92.1627 21.811 91.9513 21.8901 91.6694 21.8901H79.6439V27.0445H88.9125C89.138 27.0219 89.3184 27.0699 89.4537 27.1886C89.589 27.3073 89.6567 27.508 89.6567 27.7905V30.8595C89.6567 31.0629 89.6003 31.2438 89.4876 31.402C89.3748 31.5603 89.1944 31.6394 88.9463 31.6394H79.6439V37.8111H92.1092C92.4249 37.8111 92.6335 37.8789 92.735 38.0146C92.8364 38.1502 92.8872 38.3593 92.8872 38.6419V41.7278C92.8872 42.2026 92.6391 42.4399 92.143 42.4399H75.3986C75.1956 42.4399 75.0208 42.3834 74.8743 42.2704C74.7277 42.1573 74.6544 41.9765 74.6544 41.7278V18.0752ZM109.716 36.7938C109.908 36.6695 110.069 36.5932 110.198 36.5649C110.328 36.5367 110.438 36.5225 110.528 36.5225C110.72 36.5338 110.883 36.6356 111.018 36.8277L111.424 37.3873L112.625 39.0997C112.682 39.1789 112.727 39.2608 112.761 39.3456C112.794 39.4304 112.811 39.5067 112.811 39.5745C112.811 39.7554 112.749 39.9164 112.625 40.0577C112.501 40.199 112.338 40.3431 112.135 40.4901C111.176 41.1909 110.142 41.7561 109.031 42.1856C107.92 42.6151 106.7 42.8299 105.369 42.8299C104.366 42.8299 103.393 42.6971 102.452 42.4315C101.51 42.1658 100.631 41.7928 99.8133 41.3124C98.9958 40.832 98.2488 40.2555 97.5722 39.583C96.8957 38.9104 96.3122 38.1616 95.8217 37.3364C95.3312 36.5112 94.9534 35.6239 94.6885 34.6744C94.4235 33.7249 94.291 32.7359 94.291 31.7072C94.291 30.6786 94.4235 29.6896 94.6885 28.74C94.9534 27.7905 95.3312 26.9032 95.8217 26.0781C96.3122 25.2529 96.8957 24.5041 97.5722 23.8315C98.2488 23.1589 98.9958 22.5824 99.8133 22.102C100.631 21.6216 101.51 21.2486 102.452 20.983C103.393 20.7174 104.366 20.5845 105.369 20.5845C106.621 20.5845 107.805 20.7767 108.921 21.161C110.038 21.5453 111.03 22.0653 111.898 22.7209L111.881 22.704C112.039 22.8622 112.194 23.0007 112.346 23.1194C112.498 23.2381 112.575 23.4217 112.575 23.6704C112.575 23.7382 112.572 23.8174 112.566 23.9078C112.56 23.9982 112.529 24.083 112.473 24.1621L111.086 26.2815C110.861 26.6206 110.613 26.7902 110.342 26.7902C110.15 26.7902 109.936 26.6941 109.699 26.5019C109.124 26.0159 108.453 25.6203 107.687 25.3151C106.92 25.0099 106.13 24.8573 105.319 24.8573C104.439 24.8573 103.613 25.041 102.841 25.4083C102.068 25.7757 101.389 26.273 100.803 26.9004C100.216 27.5277 99.7541 28.2568 99.4158 29.0876C99.0775 29.9184 98.9084 30.7916 98.9084 31.7072C98.9084 32.6454 99.0775 33.5271 99.4158 34.3523C99.7541 35.1774 100.214 35.8952 100.794 36.5056C101.375 37.116 102.054 37.5992 102.832 37.9553C103.61 38.3113 104.439 38.4894 105.319 38.4894C106.277 38.4894 107.106 38.3226 107.805 37.9892C108.504 37.6557 109.141 37.2573 109.716 36.7938ZM114.317 31.7072C114.317 30.6786 114.449 29.6867 114.714 28.7316C114.979 27.7764 115.354 26.8863 115.839 26.0611C116.324 25.2359 116.904 24.4871 117.581 23.8145C118.258 23.142 119.007 22.5655 119.83 22.0851C120.654 21.6047 121.536 21.2317 122.477 20.966C123.419 20.7004 124.403 20.5676 125.429 20.5676C126.444 20.5676 127.425 20.7004 128.372 20.966C129.319 21.2317 130.201 21.6047 131.019 22.0851C131.836 22.5655 132.583 23.142 133.26 23.8145C133.936 24.4871 134.517 25.2359 135.002 26.0611C135.487 26.8863 135.862 27.7764 136.127 28.7316C136.392 29.6867 136.524 30.6786 136.524 31.7072C136.524 32.7358 136.392 33.7249 136.127 34.6744C135.862 35.6239 135.487 36.5084 135.002 37.3279C134.517 38.1474 133.936 38.8963 133.26 39.5745C132.583 40.2527 131.836 40.832 131.019 41.3124C130.201 41.7928 129.319 42.1658 128.372 42.4315C127.425 42.6971 126.444 42.8299 125.429 42.8299C124.403 42.8299 123.419 42.6971 122.477 42.4315C121.536 42.1658 120.654 41.7928 119.83 41.3124C119.007 40.832 118.258 40.2527 117.581 39.5745C116.904 38.8963 116.324 38.1474 115.839 37.3279C115.354 36.5084 114.979 35.6239 114.714 34.6744C114.449 33.7249 114.317 32.7358 114.317 31.7072ZM119.086 31.7072C119.086 32.6115 119.244 33.4677 119.56 34.2759C119.876 35.0841 120.315 35.7878 120.879 36.3869C121.443 36.986 122.111 37.4607 122.883 37.8111C123.656 38.1615 124.499 38.3367 125.412 38.3367C126.303 38.3367 127.129 38.1615 127.89 37.8111C128.651 37.4607 129.308 36.986 129.86 36.3869C130.413 35.7878 130.844 35.0841 131.154 34.2759C131.464 33.4677 131.619 32.6115 131.619 31.7072C131.619 30.8142 131.464 29.9608 131.154 29.147C130.844 28.3331 130.413 27.6182 129.86 27.0021C129.308 26.3861 128.651 25.8944 127.89 25.527C127.129 25.1596 126.303 24.976 125.412 24.976C124.499 24.976 123.656 25.1596 122.883 25.527C122.111 25.8944 121.443 26.3861 120.879 27.0021C120.315 27.6182 119.876 28.3331 119.56 29.147C119.244 29.9608 119.086 30.8142 119.086 31.7072ZM160.649 19.0925C160.784 19.1716 160.897 19.2677 160.987 19.3807C161.077 19.4937 161.122 19.6294 161.122 19.7876C161.122 19.912 161.088 20.042 161.021 20.1776L159.38 22.9752C159.188 23.2352 158.985 23.3652 158.771 23.3652C158.703 23.3652 158.625 23.3511 158.534 23.3228C158.444 23.2946 158.354 23.2522 158.264 23.1957C157.553 22.687 156.792 22.2914 155.98 22.0088C155.169 21.7262 154.306 21.5849 153.393 21.5849C152.242 21.5849 151.188 21.8025 150.23 22.2377C149.271 22.6729 148.443 23.2635 147.743 24.0095C147.044 24.7555 146.5 25.6316 146.111 26.6376C145.722 27.6436 145.528 28.7231 145.528 29.876C145.528 31.0177 145.722 32.0887 146.111 33.0891C146.5 34.0894 147.044 34.9626 147.743 35.7087C148.443 36.4547 149.271 37.0425 150.23 37.472C151.188 37.9016 152.242 38.1163 153.393 38.1163C154.306 38.1163 155.177 37.975 156.006 37.6924C156.835 37.4099 157.598 37.0142 158.298 36.5056C158.388 36.4378 158.481 36.3925 158.577 36.3699C158.672 36.3473 158.754 36.3304 158.822 36.3191C159.014 36.3191 159.211 36.4434 159.414 36.6921L161.088 39.5236C161.156 39.6593 161.19 39.7836 161.19 39.8966C161.19 40.0549 161.142 40.1849 161.046 40.2866C160.95 40.3883 160.84 40.4844 160.716 40.5748C159.656 41.287 158.515 41.838 157.291 42.228C156.068 42.618 154.78 42.8129 153.426 42.8129C152.231 42.8129 151.084 42.6604 149.985 42.3552C148.885 42.05 147.856 41.6148 146.898 41.0496C145.939 40.4844 145.068 39.809 144.285 39.0234C143.501 38.2378 142.827 37.3675 142.263 36.4123C141.7 35.4572 141.266 34.4286 140.961 33.3265C140.657 32.2244 140.504 31.0742 140.504 29.876C140.504 28.6779 140.657 27.5277 140.961 26.4256C141.266 25.3235 141.7 24.2893 142.263 23.3228C142.827 22.3564 143.501 21.4775 144.285 20.6863C145.068 19.895 145.939 19.2196 146.898 18.6601C147.856 18.1006 148.885 17.6654 149.985 17.3545C151.084 17.0437 152.231 16.8883 153.426 16.8883C154.768 16.8883 156.042 17.0776 157.249 17.4563C158.455 17.8349 159.589 18.3803 160.649 19.0925ZM185.596 41.4396C185.596 41.643 185.554 41.8098 185.469 41.9397C185.385 42.0697 185.275 42.1715 185.139 42.2449C185.004 42.3184 184.849 42.3693 184.674 42.3975C184.499 42.4258 184.316 42.4399 184.124 42.4399H182.01C181.649 42.4399 181.399 42.3438 181.258 42.1517C181.117 41.9595 181.012 41.7165 180.945 41.4226L180.843 39.9814C180.449 40.377 180.012 40.7472 179.532 41.092C179.053 41.4367 178.537 41.7363 177.985 41.9906C177.432 42.2449 176.846 42.4428 176.226 42.584C175.606 42.7253 174.969 42.796 174.315 42.796C173.3 42.796 172.322 42.6632 171.38 42.3975C170.439 42.1319 169.556 41.7589 168.733 41.2785C167.91 40.7981 167.163 40.2188 166.492 39.5406C165.821 38.8624 165.246 38.1107 164.767 37.2855C164.288 36.4604 163.916 35.573 163.651 34.6235C163.386 33.674 163.253 32.685 163.253 31.6564C163.253 30.6277 163.386 29.6387 163.651 28.6892C163.916 27.7397 164.288 26.8524 164.767 26.0272C165.246 25.202 165.821 24.4532 166.492 23.7806C167.163 23.108 167.91 22.5316 168.733 22.0512C169.556 21.5708 170.439 21.1978 171.38 20.9321C172.322 20.6665 173.3 20.5337 174.315 20.5337C175.036 20.5337 175.724 20.61 176.378 20.7626C177.032 20.9152 177.644 21.1299 178.213 21.4069C178.783 21.6838 179.31 22.0173 179.795 22.4072C180.279 22.7972 180.719 23.2239 181.114 23.6874L181.351 21.8731C181.407 21.6697 181.461 21.5029 181.511 21.373C181.562 21.243 181.624 21.1384 181.697 21.0593C181.771 20.9802 181.864 20.9265 181.976 20.8982C182.089 20.87 182.23 20.8558 182.399 20.8558H184.091C184.271 20.8558 184.451 20.8728 184.632 20.9067C184.812 20.9406 184.976 20.9943 185.122 21.0678C185.269 21.1412 185.385 21.243 185.469 21.373C185.554 21.5029 185.596 21.664 185.596 21.8562V41.4396ZM168.006 31.6563C168.006 32.5606 168.164 33.4169 168.479 34.2251C168.795 35.0333 169.235 35.7426 169.799 36.353C170.363 36.9634 171.025 37.4466 171.786 37.8026C172.547 38.1587 173.379 38.3367 174.281 38.3367C175.194 38.3367 176.048 38.1587 176.843 37.8026C177.638 37.4466 178.329 36.9634 178.915 36.353C179.501 35.7426 179.964 35.0333 180.302 34.2251C180.64 33.4169 180.809 32.5606 180.809 31.6563C180.809 30.7634 180.64 29.9128 180.302 29.1046C179.964 28.2964 179.501 27.5871 178.915 26.9767C178.329 26.3663 177.638 25.8802 176.843 25.5185C176.048 25.1568 175.194 24.976 174.281 24.976C173.379 24.976 172.547 25.1568 171.786 25.5185C171.025 25.8802 170.363 26.3663 169.799 26.9767C169.235 27.5871 168.795 28.2964 168.479 29.1046C168.164 29.9128 168.006 30.7634 168.006 31.6563ZM193.393 41.4226C193.292 41.7617 193.182 42.0161 193.063 42.1856C192.945 42.3552 192.717 42.4399 192.378 42.4399H189.824C189.114 42.4399 188.759 42.1008 188.759 41.4226V15.5319C188.759 15.238 188.86 14.9949 189.063 14.8028C189.266 14.6106 189.497 14.5145 189.757 14.5145H192.547C192.886 14.5145 193.151 14.6134 193.342 14.8113C193.534 15.0091 193.63 15.2493 193.63 15.5319V23.3143C194.442 22.4779 195.375 21.811 196.429 21.3136C197.483 20.8163 198.693 20.5676 200.057 20.5676C201.579 20.5676 202.997 20.8586 204.311 21.4408C205.624 22.0229 206.769 22.817 207.744 23.823C208.72 24.829 209.484 26.0074 210.036 27.3582C210.589 28.709 210.865 30.1586 210.865 31.7072C210.865 33.2445 210.589 34.6885 210.036 36.0393C209.484 37.3901 208.72 38.5685 207.744 39.5745C206.769 40.5805 205.624 41.3746 204.311 41.9567C202.997 42.5388 201.579 42.8299 200.057 42.8299C199.392 42.8299 198.755 42.7564 198.146 42.6095C197.537 42.4625 196.956 42.2619 196.404 42.0076C195.851 41.7532 195.335 41.4509 194.856 41.1005C194.377 40.7501 193.94 40.377 193.545 39.9814L193.393 41.4226ZM206.112 31.7072C206.112 30.8142 205.954 29.9608 205.639 29.147C205.323 28.3331 204.883 27.6182 204.319 27.0021C203.756 26.3861 203.09 25.8944 202.324 25.527C201.557 25.1596 200.728 24.976 199.837 24.976C198.935 24.976 198.087 25.1596 197.292 25.527C196.497 25.8944 195.803 26.3861 195.211 27.0021C194.619 27.6182 194.154 28.3331 193.816 29.147C193.478 29.9608 193.309 30.8142 193.309 31.7072V31.8259C193.32 32.7189 193.5 33.5582 193.85 34.3438C194.199 35.1294 194.667 35.8189 195.254 36.4123C195.84 37.0057 196.525 37.4748 197.309 37.8196C198.092 38.1644 198.935 38.3367 199.837 38.3367C200.728 38.3367 201.557 38.1615 202.324 37.8111C203.09 37.4607 203.756 36.986 204.319 36.3869C204.883 35.7878 205.323 35.0841 205.639 34.2759C205.954 33.4677 206.112 32.6115 206.112 31.7072ZM213.453 21.941C213.453 21.6471 213.537 21.4012 213.706 21.2034C213.875 21.0056 214.123 20.9067 214.45 20.9067H217.258C217.382 20.9067 217.509 20.9321 217.639 20.983C217.768 21.0339 217.884 21.1073 217.985 21.2034C218.087 21.2995 218.171 21.4097 218.239 21.534C218.307 21.6584 218.341 21.794 218.341 21.941V41.4226C218.341 42.1008 217.985 42.4399 217.275 42.4399H214.467C213.791 42.4399 213.453 42.1008 213.453 41.4226V21.941ZM213.453 14.4467C213.453 13.7685 213.785 13.4294 214.45 13.4294H217.292C217.608 13.4294 217.861 13.5142 218.053 13.6837C218.245 13.8533 218.341 14.1076 218.341 14.4467V16.9731C218.341 17.233 218.25 17.4789 218.07 17.7106C217.89 17.9423 217.636 18.0582 217.309 18.0582H214.467C213.791 18.0582 213.453 17.6965 213.453 16.9731V14.4467ZM222.586 21.9071C222.586 21.7488 222.654 21.5793 222.789 21.3984C222.924 21.2175 223.054 21.1045 223.178 21.0593C223.268 20.9689 223.403 20.9208 223.584 20.9152C223.764 20.9095 223.933 20.9067 224.091 20.9067H225.799C226.126 20.9067 226.369 21.0141 226.527 21.2288C226.685 21.4436 226.792 21.681 226.848 21.941L227.034 23.7382C227.293 23.3539 227.612 22.9752 227.99 22.6022C228.367 22.2292 228.816 21.8958 229.334 21.6019C229.853 21.308 230.445 21.0706 231.11 20.8897C231.776 20.7089 232.525 20.6185 233.36 20.6185C234.69 20.6185 235.874 20.8587 236.912 21.3391C237.949 21.8195 238.823 22.4779 239.533 23.3143C240.244 24.1508 240.782 25.1342 241.148 26.2646C241.515 27.3949 241.698 28.6101 241.698 29.91V41.2192C241.698 41.6261 241.602 41.9313 241.411 42.1347C241.219 42.3382 240.943 42.4399 240.582 42.4399H238.011C237.56 42.4399 237.258 42.3552 237.106 42.1856C236.954 42.0161 236.878 41.7165 236.878 41.287V29.9947C236.878 29.3956 236.776 28.8107 236.573 28.2399C236.37 27.669 236.074 27.1576 235.685 26.7054C235.296 26.2533 234.814 25.8916 234.239 25.6203C233.664 25.349 232.999 25.2133 232.244 25.2133C231.725 25.2133 231.186 25.3179 230.628 25.527C230.07 25.7361 229.56 26.0328 229.098 26.4172C228.635 26.8015 228.252 27.2678 227.947 27.816C227.643 28.3642 227.485 28.9831 227.474 29.6726V40.6596C227.474 40.8744 227.463 41.0892 227.44 41.3039C227.418 41.5187 227.37 41.7109 227.296 41.8804C227.223 42.05 227.119 42.1856 226.983 42.2873C226.848 42.3891 226.673 42.4399 226.459 42.4399H223.668C223.296 42.4399 223.023 42.3523 222.848 42.1771C222.673 42.0019 222.586 41.7504 222.586 41.4226V21.9071ZM246.603 36.3699C246.84 36.7429 247.139 37.0651 247.5 37.3364C247.86 37.6077 248.23 37.8309 248.607 38.0061C248.985 38.1813 249.346 38.3085 249.69 38.3876C250.034 38.4667 250.307 38.5063 250.51 38.5063C250.826 38.5063 251.198 38.4724 251.626 38.4046C252.055 38.3367 252.458 38.2152 252.836 38.04C253.214 37.8648 253.535 37.6274 253.8 37.3279C254.065 37.0284 254.197 36.6469 254.197 36.1834C254.197 35.7313 254.093 35.3639 253.884 35.0813C253.676 34.7987 253.394 34.5642 253.039 34.3777C252.684 34.1912 252.278 34.0357 251.821 33.9114C251.364 33.7871 250.882 33.6514 250.375 33.5045C249.191 33.188 248.182 32.8065 247.347 32.36C246.513 31.9135 245.828 31.402 245.292 30.8255C244.757 30.2491 244.365 29.6161 244.117 28.9265C243.869 28.237 243.745 27.4853 243.745 26.6715C243.745 25.7559 243.925 24.9194 244.286 24.1621C244.647 23.4048 245.154 22.7548 245.808 22.2122C246.462 21.6697 247.249 21.2486 248.168 20.9491C249.087 20.6495 250.104 20.4998 251.221 20.4998C252.01 20.4998 252.715 20.5704 253.335 20.7117C253.955 20.853 254.53 21.0649 255.06 21.3475C255.59 21.6301 256.089 21.9862 256.557 22.4157C257.025 22.8452 257.501 23.3482 257.986 23.9247C258.155 24.1282 258.24 24.326 258.24 24.5182C258.24 24.7216 258.127 24.9138 257.901 25.0946C257.732 25.2303 257.532 25.3998 257.301 25.6033C257.07 25.8068 256.841 26.0046 256.616 26.1967C256.39 26.3889 256.176 26.5528 255.973 26.6884C255.77 26.8241 255.601 26.8919 255.466 26.8919C255.218 26.8919 254.975 26.745 254.739 26.4511C254.49 26.1572 254.242 25.9 253.994 25.6796C253.746 25.4592 253.487 25.2783 253.216 25.137C252.946 24.9957 252.653 24.8884 252.337 24.8149C252.021 24.7414 251.677 24.7047 251.305 24.7047C251.001 24.7047 250.682 24.7499 250.349 24.8403C250.017 24.9307 249.712 25.0664 249.436 25.2472C249.16 25.4281 248.929 25.6457 248.743 25.9C248.557 26.1544 248.464 26.4398 248.464 26.7563C248.464 27.118 248.579 27.426 248.81 27.6803C249.042 27.9347 249.335 28.1551 249.69 28.3416C250.045 28.5281 250.431 28.6835 250.848 28.8079C251.266 28.9322 251.655 29.0452 252.015 29.147C253.053 29.4409 254.006 29.78 254.874 30.1643C255.742 30.5486 256.489 31.0149 257.115 31.5631C257.741 32.1113 258.228 32.7556 258.578 33.496C258.927 34.2364 259.102 35.1039 259.102 36.0986C259.102 37.1499 258.894 38.0909 258.476 38.9217C258.059 39.7525 257.481 40.4562 256.743 41.0326C256.004 41.6091 255.13 42.05 254.121 42.3551C253.112 42.6603 252.015 42.8129 250.832 42.8129C250.121 42.8129 249.4 42.7366 248.667 42.584C247.934 42.4314 247.232 42.1941 246.561 41.8719C245.89 41.5498 245.27 41.1372 244.7 40.6342C244.131 40.1312 243.655 39.5349 243.271 38.8454C243.102 38.5628 243.017 38.3085 243.017 38.0824C243.017 37.9355 243.054 37.8083 243.127 37.7009C243.201 37.5935 243.299 37.489 243.423 37.3872L245.318 35.9291C245.487 35.8274 245.639 35.7765 245.774 35.7765C245.932 35.7765 246.073 35.8302 246.197 35.9376C246.321 36.0449 246.457 36.1891 246.603 36.3699Z" fill="white"/>
</svg>
